<?xml version="1.0" standalone="no"?><!DOCTYPE svg PUBLIC "-//W3C//DTD SVG 1.1//EN" "http://www.w3.org/Graphics/SVG/1.1/DTD/svg11.dtd"><svg t="1539609076263" class="icon" style="" viewBox="0 0 1024 1024" version="1.1" xmlns="http://www.w3.org/2000/svg" p-id="10570" xmlns:xlink="http://www.w3.org/1999/xlink" width="16" height="16"><defs><style type="text/css"></style></defs><path d="M896 96H128C57.6 96 0 153.6 0 224v576c0 70.4 57.6 128 128 128h768c70.4 0 128-57.6 128-128V224c0-70.4-57.6-128-128-128z m64 704c0 35.2-28.8 64-64 64H128c-35.2 0-64-28.8-64-64v-57.6l291.2-291.2 310.4 310.4 160-160L960 736v64z m0-153.6L825.6 512l-160 160-310.4-310.4L64 652.8V224c0-35.2 28.8-64 64-64h768c35.2 0 64 28.8 64 64v422.4z" p-id="10571"></path><path d="M768 214.4c-60.8 0-112 51.2-112 112s51.2 112 112 112 112-51.2 112-112-51.2-112-112-112z m0 160c-25.6 0-48-22.4-48-48s22.4-48 48-48 48 22.4 48 48-22.4 48-48 48z" p-id="10572"></path></svg>