<?xml version="1.0" standalone="no"?><!DOCTYPE svg PUBLIC "-//W3C//DTD SVG 1.1//EN" "http://www.w3.org/Graphics/SVG/1.1/DTD/svg11.dtd"><svg t="1539611254529" class="icon" style="" viewBox="0 0 1024 1024" version="1.1" xmlns="http://www.w3.org/2000/svg" p-id="5962" xmlns:xlink="http://www.w3.org/1999/xlink" width="18" height="18"><defs><style type="text/css"></style></defs><path d="M516.009825 379.052059c-24.246217 0-43.903929 19.659759-43.903929 43.904952 0 24.24724 19.656689 43.903929 43.903929 43.903929s43.903929-19.656689 43.903929-43.903929C559.914778 398.711817 540.257066 379.052059 516.009825 379.052059L516.009825 379.052059zM340.391039 379.052059c-24.24724 0-43.905976 19.659759-43.905976 43.904952 0 24.24724 19.657712 43.903929 43.905976 43.903929 24.246217 0 43.903929-19.656689 43.903929-43.903929C384.294968 398.711817 364.637256 379.052059 340.391039 379.052059L340.391039 379.052059zM516.009825 115.622344c-193.980993 0-351.23962 137.611148-351.23962 307.334667 0 97.006358 51.482535 183.380564 131.714857 239.697197L296.485063 818.102606l153.872506-93.359294c21.298072 3.514033 43.196825 5.54939 65.653279 5.54939 193.980993 0 351.241666-137.588635 351.241666-307.334667C867.250468 253.234515 709.990818 115.622344 516.009825 115.622344L516.009825 115.622344zM516.009825 686.388772c-25.640983 0-50.4009-2.978844-74.208119-8.061606l-103.341646 62.127989 1.38351-101.830223c-79.236646-47.634904-131.168412-126.398782-131.168412-215.667921 0-145.479349 137.599891-263.429715 307.334667-263.429715 169.733753 0 307.334667 117.951389 307.334667 263.429715C823.344492 568.458873 685.743578 686.388772 516.009825 686.388772L516.009825 686.388772zM691.630658 379.052059c-24.246217 0-43.904952 19.659759-43.904952 43.904952 0 24.24724 19.658735 43.903929 43.904952 43.903929s43.904952-19.656689 43.904952-43.903929C735.536634 398.711817 715.876875 379.052059 691.630658 379.052059L691.630658 379.052059z" p-id="5963" fill="#2c2c2c"></path></svg>